<svg xmlns="http://www.w3.org/2000/svg" width="512" height="512">
  <path fill="#428bca" stroke="#428bca" d="M34.29749663 128v256l193.98969045 96V368l-83.13843876-48v-50.14359354h55.42562584V288L256 320v-64l-55.42562584-32v18.14359354h-55.42562584V192z"/>
  <path fill="#4186c2" stroke="#4186c2" d="M34.29749663 128L256 0l221.70250337 128-110.8512517 64L256 128l-110.85125168 64zm166.27687753 96L256 256l55.42562584-32L256 192z"/>
  <path fill="#3f81ba" stroke="#3f81ba" d="M477.70250337 128l-110.8512517 64v50.14359354h-55.42562583V224L256 256v64l55.42562584-32v-18.14359354h55.42562584V320l-83.13843876 48v112l193.98969045-96z"/>
</svg>
